<svg xmlns="http://www.w3.org/2000/svg" xmlns:xlink="http://www.w3.org/1999/xlink" viewBox="0,0,256,256" width="32px" height="32px" fill-rule="nonzero"><g fill="#ea0707" fill-rule="nonzero" stroke="none" stroke-width="1" stroke-linecap="butt" stroke-linejoin="miter" stroke-miterlimit="10" stroke-dasharray="" stroke-dashoffset="0" font-family="none" font-weight="none" font-size="none" text-anchor="none" style="mix-blend-mode: normal"><g transform="scale(8,8)"><path d="M22.1543,1c-0.04077,0.00158 -0.0725,0.01295 -0.09375,0.0332l-3.71484,4.41211l-0.75781,2.60547c-0.515,-0.017 -1.0468,-0.02344 -1.5918,-0.02344c-3.861,0 -6.99609,0.40902 -6.99609,0.91602c0,1.21 13.99023,1.21 13.99023,0c0,-0.375 -1.67484,-0.6918 -4.08984,-0.8418l0.59961,-2.14453l3.47461,-4.17969l0.00586,-0.00586c0.078,-0.081 -0.07427,-0.32411 -0.32227,-0.53711c-0.186,-0.1605 -0.38161,-0.23911 -0.50391,-0.23437zM17.30273,9.07617l-0.01367,0.04102c-0.006,0.005 -0.00586,0.01158 -0.00586,0.01758c0,0.075 0.30288,0.13672 0.67188,0.13672c0.369,0 0.67383,-0.06172 0.67383,-0.13672l0.01172,-0.04687c0.097,0.035 0.15039,0.07509 0.15039,0.12109c0,0.121 -0.3748,0.21984 -0.8418,0.21484c-0.454,0 -0.83008,-0.09189 -0.83008,-0.21289c0,-0.052 0.07459,-0.09977 0.18359,-0.13477zM22.91211,9.41992c-1.851,0.987 -11.96231,0.99367 -13.82031,0.01367l0.82227,7.23242c0.357,-1.153 1.25988,-2.70964 2.42188,-3.18164c0.381,-0.156 0.76786,-0.15527 1.13086,0.05273c0.315,0.173 0.58133,0.53569 0.61133,0.67969c0.073,0.375 -0.12048,0.52344 -0.27148,0.52344c-0.182,0 -0.32111,-0.26392 -0.41211,-0.41992c-0.248,-0.421 -0.62344,-0.43911 -1.02344,-0.16211c-0.418,0.288 -0.78116,0.77236 -1.03516,1.19336c-0.309,0.507 -0.56956,1.066 -0.72656,1.625c-0.091,0.323 -0.17416,0.84048 -0.03516,1.14648c0.061,0.127 0.15088,0.20703 0.29688,0.20703c0.303,0 0.74308,-0.38003 0.95508,-0.58203c0.272,-0.259 0.62286,-0.66287 0.75586,-0.92187l0.31641,-0.89258c0.157,-0.392 0.59766,-0.323 0.59766,0c0,0.588 -0.22252,0.784 -0.60352,2c-0.351,1.124 -0.46094,1.48828 -0.46094,1.48828c-0.042,0.161 -0.20586,0.43164 -0.38086,0.43164c-0.073,0 -0.12625,-0.02431 -0.15625,-0.07031c-0.061,-0.081 -0.05483,-0.30333 -0.04883,-0.36133c0.012,-0.184 0.38041,-1.28013 0.44141,-1.45312c-0.121,0.127 -0.24772,0.25486 -0.38672,0.38086c-0.327,0.294 -0.85278,0.67969 -1.30078,0.67969c-0.206,0 -0.33784,-0.05267 -0.46484,-0.13867l0.45898,4.58789c0.121,0.288 2.37289,0.98633 5.33789,0.98633c2.971,0 5.22094,-0.70333 5.33594,-0.98633l0.66016,-5.45117c-0.345,0.3 -0.74355,0.66952 -1.18555,0.85352c-0.327,0.133 -1.05273,0.21792 -1.05273,-0.33008c0,-0.3 0.55109,-0.85228 0.87109,-1.23828c0.085,-0.098 0.2832,-0.3398 0.2832,-0.4668c0,-0.167 -0.36203,-0.12842 -0.70703,0.14258c-0.194,0.156 -0.37634,0.36455 -0.52734,0.56055c-0.26,0.346 -0.39867,0.64458 -0.51367,0.89258c-0.375,0.818 -0.24778,0.49558 -0.55078,1.26758c-0.303,0.767 -0.25345,0.67964 -0.31445,0.80664c-0.054,0.11 -0.13319,0.20277 -0.24219,0.25977c-0.115,0.058 -0.27214,0.05142 -0.36914,-0.01758c-0.054,-0.035 -0.08008,-0.10989 -0.08008,-0.21289c0,-0.052 0.00753,-0.10425 0.01953,-0.15625c0.091,-0.352 0.4722,-1.04256 0.9082,-1.97656c0.097,-0.213 0.05988,-0.14981 0.04688,-0.13281c-0.375,0.346 -0.66009,0.51347 -0.87109,0.60547c-0.351,0.15 -0.78695,0.14967 -0.87695,-0.23633c-0.006,-0.023 -0.00572,-0.04731 -0.01172,-0.07031c-0.714,0.53 -1.46998,0.6742 -1.20898,-0.4668c-0.278,0.473 -0.76342,0.85938 -1.35742,0.85938c-0.248,0 -0.42953,-0.07997 -0.51953,-0.29297c-0.139,-0.317 0.07834,-0.86005 0.27734,-1.37305c0.103,-0.259 0.24364,-0.57059 0.43164,-0.93359c0.097,-0.196 0.25298,-0.31177 0.45899,-0.25977c0.036,0.012 0.06766,0.02402 0.09766,0.04102c0.157,0.104 0.09658,0.25806 0.01758,0.41406c-0.23,0.432 -0.4295,0.74922 -0.5625,1.19922c-0.054,0.19 -0.12216,0.51953 0.08984,0.51953c0.145,0 0.28397,-0.04667 0.41797,-0.13867c0.278,-0.196 0.50188,-0.48934 0.67188,-0.77734c0.121,-0.207 0.26684,-0.47799 0.33984,-0.70898c0.03,-0.098 0.06738,-0.19034 0.10938,-0.27734c0.067,-0.144 0.15645,-0.29297 0.31445,-0.29297c0.079,0 0.14436,0.02894 0.19336,0.08594c0.103,0.127 0.08039,0.25748 0.02539,0.39648c-0.121,0.323 -0.28397,0.61189 -0.41797,0.96289c-0.079,0.202 -0.16406,0.46083 -0.16406,0.67383c0,0.196 0.22411,0.14936 0.41211,0.06836c0.145,-0.063 0.29011,-0.15981 0.41211,-0.25781c0.073,-0.282 0.05366,-0.21964 1.59766,-3.93164c0.079,-0.19 0.22414,-0.27149 0.36914,-0.27149c0.073,0 0.13236,0.02445 0.19336,0.06445c0.103,0.075 0.1045,0.23447 0.0625,0.35547c-0.042,0.11 -0.03744,0.07547 -0.27344,0.60547c-0.315,0.697 -0.51983,1.19984 -0.79883,1.83984c-0.115,0.265 -0.46539,1.08916 -0.52539,1.28516c-0.036,0.127 -0.07945,0.33398 0.06055,0.33398c0.327,0 1.16844,-0.75547 1.39844,-0.98047c0.012,-0.017 0.03069,-0.02316 0.05469,-0.03516c0.036,-0.11 0.07156,-0.21241 0.10156,-0.31641c0.085,-0.219 0.16427,-0.47434 0.32227,-0.65234c0.048,-0.058 0.10211,-0.0918 0.16211,-0.0918c0.169,0 0.25391,0.06847 0.25391,0.23047c0,0.063 -0.04141,0.29442 -0.06641,0.35742c0.085,-0.086 0.17449,-0.17181 0.27148,-0.25781c0.908,-0.801 1.55469,-0.39228 1.55469,0.01172c0,0.426 -0.53798,1.01866 -0.83398,1.34766c-0.097,0.11 -0.29673,0.31114 -0.30273,0.36914c0,0.075 0.05381,0.10547 0.13281,0.10547c0.121,0 0.38738,-0.20248 0.48438,-0.27148c0.303,-0.225 0.71291,-0.5705 1.00391,-0.8125zM10.92969,24.03125l0.90234,1.46484l0.35156,4.57617c0,0.513 1.71236,0.92773 3.81836,0.92773c2.106,0 3.81836,-0.41473 3.81836,-0.92773l0.2793,-4.62305l0.85156,-1.41797c-2.397,0.963 -7.52748,0.997 -10.02148,0z"></path></g></g></svg>